<?xml version="1.0" encoding="utf-8"?>
<!-- Generator: Adobe Illustrator 22.0.1, SVG Export Plug-In . SVG Version: 6.00 Build 0)  -->
<svg version="1.1" id="Layer_1" xmlns="http://www.w3.org/2000/svg" xmlns:xlink="http://www.w3.org/1999/xlink" x="0px" y="0px"
	 viewBox="0 0 113 32" style="enable-background:new 0 0 113 32;" xml:space="preserve">
<style type="text/css">
	.st0{fill:#0096FF;}
	.st1{fill:#E6E7E8;}
</style>
<g>
	<path class="st0" d="M25.2,25.9c-5.6,0-10.1-4.5-10.1-10.1c0-5.6,4.5-10.2,10.1-10.2h2.8v5.8h-2.5c-2.4,0-4.4,2-4.4,4.4
		c0,2.4,1.9,4.4,4.4,4.4v-4.4h5.6v10.2H25.2z"/>
	<path class="st1" d="M41.1,5.7c3.9,0,7.5,1.2,7.5,5.8c0,2.1-1.6,3.6-2.9,3.6c2.2,0,3.3,1.7,3.3,4.2c0,7.2-7.2,6.6-7.2,6.6h-8V5.7
		H41.1z M39.8,10.6v2.2h0.4c0.3,0,0.6,0,0.8,0c0.7,0,2-0.2,2-1.3c0-1-1.5-1-1.9-1H39.8z M39.8,18.9v2.4h2.3c0,0,1.3,0,1.3-1.1
		c0-1-1.2-1.2-2.9-1.3h-0.2h-0.1H39.8z"/>
	<path class="st1" d="M51.5,5.6h6.6v20.3h-6.6V5.6z"/>
	<path class="st1" d="M66.9,16.7v9.1h-6V5.7h7.3c3.9,0,7.5,1.2,7.5,5.8c0,2-2,4.4-3.8,5l4.7,9.4h-5.1L66.9,16.7z M66.9,10.6v2.2h0.4
		c0.3,0,0.6,0,0.8,0c0.7,0,2-0.2,2-1.3c0-1-1.5-1-1.9-1H66.9z"/>
	<path class="st1" d="M79.2,5.6l8.6,0c5.6,0,10.1,4.6,10.1,10.2c0,5.6-4.5,10.1-10.1,10.1h-8.6V5.6z M85.1,11.4v8.7h2.5
		c2.4,0,4.4-1.9,4.4-4.4c0-2.4-1.9-4.4-4.4-4.4H85.1z"/>
</g>
</svg>
